<svg width="38" height="39" viewBox="0 0 38 39" fill="none" xmlns="http://www.w3.org/2000/svg">
<g filter="url(#filter0_d_24_430)">
<rect x="4" y="0.5" width="30" height="30" rx="15" fill="white"/>
<path d="M17.106 11.3082L16.8376 10.7042C16.662 10.3093 16.5743 10.1118 16.443 9.96067C16.2785 9.77129 16.0641 9.63196 15.8243 9.55857C15.6329 9.5 15.4168 9.5 14.9846 9.5C14.3524 9.5 14.0363 9.5 13.771 9.62153C13.4584 9.76468 13.1761 10.0755 13.0636 10.4004C12.9682 10.6762 12.9955 10.9596 13.0502 11.5265C13.6324 17.5601 16.9404 20.8681 22.974 21.4503C23.5409 21.505 23.8243 21.5323 24.1001 21.4369C24.425 21.3244 24.7358 21.0421 24.879 20.7295C25.0005 20.4641 25.0005 20.1481 25.0005 19.5159C25.0005 19.0837 25.0005 18.8676 24.9419 18.6762C24.8685 18.4363 24.7292 18.2219 24.5398 18.0575C24.3887 17.9262 24.1913 17.8385 23.7963 17.6629L23.1923 17.3945C22.7647 17.2044 22.5508 17.1094 22.3335 17.0887C22.1255 17.0689 21.9159 17.0981 21.7212 17.1739C21.5178 17.2531 21.3381 17.4029 20.9785 17.7025C20.6206 18.0008 20.4417 18.1499 20.223 18.2298C20.0291 18.3006 19.7729 18.3269 19.5687 18.2967C19.3384 18.2628 19.1621 18.1686 18.8093 17.9801C17.712 17.3937 17.1068 16.7885 16.5204 15.6911C16.3319 15.3385 16.2377 15.1621 16.2037 14.9318C16.1736 14.7276 16.1999 14.4713 16.2707 14.2775C16.3506 14.0589 16.4997 13.8799 16.7979 13.522C17.0976 13.1625 17.2474 12.9827 17.3266 12.7793C17.4024 12.5846 17.4316 12.3749 17.4118 12.167C17.3911 11.9497 17.2961 11.7358 17.106 11.3082Z" stroke="#003FFC" stroke-width="1.06667" stroke-linecap="round"/>
</g>
<defs>
<filter id="filter0_d_24_430" x="0" y="0.5" width="38" height="38" filterUnits="userSpaceOnUse" color-interpolation-filters="sRGB">
<feFlood flood-opacity="0" result="BackgroundImageFix"/>
<feColorMatrix in="SourceAlpha" type="matrix" values="0 0 0 0 0 0 0 0 0 0 0 0 0 0 0 0 0 0 127 0" result="hardAlpha"/>
<feOffset dy="4"/>
<feGaussianBlur stdDeviation="2"/>
<feComposite in2="hardAlpha" operator="out"/>
<feColorMatrix type="matrix" values="0 0 0 0 0 0 0 0 0 0 0 0 0 0 0 0 0 0 0.1 0"/>
<feBlend mode="normal" in2="BackgroundImageFix" result="effect1_dropShadow_24_430"/>
<feBlend mode="normal" in="SourceGraphic" in2="effect1_dropShadow_24_430" result="shape"/>
</filter>
</defs>
</svg>
