<svg width="38" height="39" viewBox="0 0 38 39" fill="none" xmlns="http://www.w3.org/2000/svg">
<g filter="url(#filter0_d_24_441)">
<rect x="4" y="0.5" width="30" height="30" rx="15" fill="white"/>
<path d="M19.0002 22.1663C22.682 22.1663 25.6668 19.1815 25.6668 15.4997C25.6668 11.8178 22.682 8.83301 19.0002 8.83301C15.3183 8.83301 12.3335 11.8178 12.3335 15.4997C12.3335 16.4189 12.5195 17.2947 12.856 18.0915C13.042 18.5317 13.135 18.7519 13.1465 18.9183C13.158 19.0847 13.1091 19.2677 13.0111 19.6338L12.3335 22.1663L14.866 21.4887C15.2321 21.3908 15.4151 21.3418 15.5815 21.3533C15.7479 21.3648 15.9681 21.4578 16.4084 21.6438C17.2051 21.9803 18.0809 22.1663 19.0002 22.1663Z" stroke="#00A10D" stroke-linejoin="round"/>
<path d="M16.7253 15.7519L17.3059 15.0307C17.5506 14.7268 17.8531 14.4439 17.8768 14.0392C17.8828 13.937 17.8109 13.478 17.667 12.5602C17.6105 12.1995 17.2737 12.167 16.9821 12.167C16.6019 12.167 16.4119 12.167 16.2231 12.2532C15.9846 12.3622 15.7397 12.6685 15.686 12.9252C15.6434 13.1283 15.675 13.2682 15.7382 13.5481C16.0067 14.7369 16.6364 15.9109 17.6128 16.8873C18.5893 17.8638 19.7633 18.4935 20.952 18.7619C21.2319 18.8251 21.3718 18.8567 21.575 18.8142C21.8316 18.7605 22.138 18.5156 22.247 18.277C22.3332 18.0883 22.3332 17.8983 22.3332 17.5181C22.3332 17.2264 22.3006 16.8897 21.9399 16.8331C21.0221 16.6893 20.5632 16.6174 20.461 16.6233C20.0563 16.6471 19.7734 16.9495 19.4694 17.1943L18.7483 17.7749" stroke="#00A10D"/>
</g>
<defs>
<filter id="filter0_d_24_441" x="0" y="0.5" width="38" height="38" filterUnits="userSpaceOnUse" color-interpolation-filters="sRGB">
<feFlood flood-opacity="0" result="BackgroundImageFix"/>
<feColorMatrix in="SourceAlpha" type="matrix" values="0 0 0 0 0 0 0 0 0 0 0 0 0 0 0 0 0 0 127 0" result="hardAlpha"/>
<feOffset dy="4"/>
<feGaussianBlur stdDeviation="2"/>
<feComposite in2="hardAlpha" operator="out"/>
<feColorMatrix type="matrix" values="0 0 0 0 0 0 0 0 0 0 0 0 0 0 0 0 0 0 0.1 0"/>
<feBlend mode="normal" in2="BackgroundImageFix" result="effect1_dropShadow_24_441"/>
<feBlend mode="normal" in="SourceGraphic" in2="effect1_dropShadow_24_441" result="shape"/>
</filter>
</defs>
</svg>
