<svg width="100" height="100" viewBox="0 0 100 100" fill="none" xmlns="http://www.w3.org/2000/svg">
<mask id="mask0_1919_273" style="mask-type:alpha" maskUnits="userSpaceOnUse" x="0" y="0" width="100" height="100">
<rect width="100" height="100" fill="#D9D9D9"/>
</mask>
<g mask="url(#mask0_1919_273)">
<path d="M25.8177 72.8521C29.3594 70.3042 33.1174 68.2892 37.0917 66.8073C41.066 65.3246 45.3687 64.5833 50 64.5833C54.6312 64.5833 58.934 65.3246 62.9083 66.8073C66.8826 68.2892 70.6406 70.3042 74.1823 72.8521C76.9337 70.0049 79.1465 66.6424 80.8208 62.7646C82.4958 58.8861 83.3333 54.6312 83.3333 50C83.3333 40.7639 80.0868 32.8993 73.5938 26.4062C67.1007 19.9132 59.2361 16.6667 50 16.6667C40.7639 16.6667 32.8993 19.9132 26.4062 26.4062C19.9132 32.8993 16.6667 40.7639 16.6667 50C16.6667 54.6312 17.5042 58.8861 19.1792 62.7646C20.8535 66.6424 23.0663 70.0049 25.8177 72.8521ZM50.0021 52.0833C46.491 52.0833 43.5295 50.8781 41.1177 48.4677C38.7059 46.0573 37.5 43.0965 37.5 39.5854C37.5 36.0743 38.7052 33.1128 41.1156 30.701C43.526 28.2892 46.4868 27.0833 49.9979 27.0833C53.509 27.0833 56.4705 28.2885 58.8823 30.699C61.2941 33.1094 62.5 36.0701 62.5 39.5812C62.5 43.0924 61.2948 46.0538 58.8844 48.4656C56.474 50.8774 53.5132 52.0833 50.0021 52.0833ZM50 87.5C44.7701 87.5 39.8743 86.5264 35.3125 84.5792C30.7507 82.632 26.7816 79.9705 23.4052 76.5948C20.0295 73.2184 17.3681 69.2493 15.4208 64.6875C13.4736 60.1257 12.5 55.2299 12.5 50C12.5 44.7701 13.4736 39.8743 15.4208 35.3125C17.3681 30.7507 20.0295 26.7816 23.4052 23.4052C26.7816 20.0295 30.7507 17.3681 35.3125 15.4208C39.8743 13.4736 44.7701 12.5 50 12.5C55.2299 12.5 60.1257 13.4736 64.6875 15.4208C69.2493 17.3681 73.2184 20.0295 76.5948 23.4052C79.9705 26.7816 82.632 30.7507 84.5792 35.3125C86.5264 39.8743 87.5 44.7701 87.5 50C87.5 55.2299 86.5264 60.1257 84.5792 64.6875C82.632 69.2493 79.9705 73.2184 76.5948 76.5948C73.2184 79.9705 69.2493 82.632 64.6875 84.5792C60.1257 86.5264 55.2299 87.5 50 87.5ZM50 83.3333C53.841 83.3333 57.6205 82.6615 61.3385 81.3177C65.0559 79.9747 68.2687 78.1358 70.9771 75.801C68.2687 73.6267 65.1358 71.908 61.5781 70.6448C58.0205 69.3816 54.1611 68.75 50 68.75C45.8389 68.75 41.966 69.3684 38.3812 70.6052C34.7972 71.842 31.6778 73.574 29.0229 75.801C31.7312 78.1358 34.9441 79.9747 38.6615 81.3177C42.3795 82.6615 46.159 83.3333 50 83.3333ZM50 47.9167C52.3396 47.9167 54.3135 47.1128 55.9219 45.5052C57.5295 43.8969 58.3333 41.9229 58.3333 39.5833C58.3333 37.2437 57.5295 35.2698 55.9219 33.6615C54.3135 32.0538 52.3396 31.25 50 31.25C47.6604 31.25 45.6865 32.0538 44.0781 33.6615C42.4705 35.2698 41.6667 37.2437 41.6667 39.5833C41.6667 41.9229 42.4705 43.8969 44.0781 45.5052C45.6865 47.1128 47.6604 47.9167 50 47.9167Z" fill="#1C1B1F"/>
</g>
</svg>
