<svg width="390" height="390" viewBox="0 0 390 390" fill="none" xmlns="http://www.w3.org/2000/svg">
<rect x="0.5" y="0.5" width="389" height="389" rx="14.5" stroke="black" stroke-dasharray="4 4"/>
<mask id="mask0_1919_243" style="mask-type:alpha" maskUnits="userSpaceOnUse" x="145" y="129" width="100" height="100">
<rect x="145" y="129" width="100" height="100" fill="#D9D9D9"/>
</mask>
<g mask="url(#mask0_1919_243)">
<path d="M170.818 201.852C174.359 199.304 178.117 197.289 182.092 195.807C186.066 194.325 190.369 193.583 195 193.583C199.631 193.583 203.934 194.325 207.908 195.807C211.883 197.289 215.641 199.304 219.182 201.852C221.934 199.005 224.147 195.642 225.821 191.765C227.496 187.886 228.333 183.631 228.333 179C228.333 169.764 225.087 161.899 218.594 155.406C212.101 148.913 204.236 145.667 195 145.667C185.764 145.667 177.899 148.913 171.406 155.406C164.913 161.899 161.667 169.764 161.667 179C161.667 183.631 162.504 187.886 164.179 191.765C165.853 195.642 168.066 199.005 170.818 201.852ZM195.002 181.083C191.491 181.083 188.53 179.878 186.118 177.468C183.706 175.057 182.5 172.097 182.5 168.585C182.5 165.074 183.705 162.113 186.116 159.701C188.526 157.289 191.487 156.083 194.998 156.083C198.509 156.083 201.47 157.289 203.882 159.699C206.294 162.109 207.5 165.07 207.5 168.581C207.5 172.092 206.295 175.054 203.884 177.466C201.474 179.877 198.513 181.083 195.002 181.083ZM195 216.5C189.77 216.5 184.874 215.526 180.312 213.579C175.751 211.632 171.782 208.97 168.405 205.595C165.03 202.218 162.368 198.249 160.421 193.688C158.474 189.126 157.5 184.23 157.5 179C157.5 173.77 158.474 168.874 160.421 164.312C162.368 159.751 165.03 155.782 168.405 152.405C171.782 149.03 175.751 146.368 180.312 144.421C184.874 142.474 189.77 141.5 195 141.5C200.23 141.5 205.126 142.474 209.688 144.421C214.249 146.368 218.218 149.03 221.595 152.405C224.97 155.782 227.632 159.751 229.579 164.312C231.526 168.874 232.5 173.77 232.5 179C232.5 184.23 231.526 189.126 229.579 193.688C227.632 198.249 224.97 202.218 221.595 205.595C218.218 208.97 214.249 211.632 209.688 213.579C205.126 215.526 200.23 216.5 195 216.5ZM195 212.333C198.841 212.333 202.62 211.661 206.339 210.318C210.056 208.975 213.269 207.136 215.977 204.801C213.269 202.627 210.136 200.908 206.578 199.645C203.02 198.382 199.161 197.75 195 197.75C190.839 197.75 186.966 198.368 183.381 199.605C179.797 200.842 176.678 202.574 174.023 204.801C176.731 207.136 179.944 208.975 183.661 210.318C187.38 211.661 191.159 212.333 195 212.333ZM195 176.917C197.34 176.917 199.314 176.113 200.922 174.505C202.53 172.897 203.333 170.923 203.333 168.583C203.333 166.244 202.53 164.27 200.922 162.661C199.314 161.054 197.34 160.25 195 160.25C192.66 160.25 190.686 161.054 189.078 162.661C187.47 164.27 186.667 166.244 186.667 168.583C186.667 170.923 187.47 172.897 189.078 174.505C190.686 176.113 192.66 176.917 195 176.917Z" fill="#1C1B1F"/>
</g>
<path d="M145.136 254L143.905 250.828H139.899L138.676 254H137.5L141.41 243.965H142.456L146.339 254H145.136ZM143.557 249.796L142.388 246.645C142.36 246.562 142.315 246.428 142.251 246.241C142.192 246.054 142.13 245.861 142.066 245.66C142.003 245.46 141.95 245.298 141.909 245.175C141.864 245.362 141.813 245.549 141.759 245.735C141.709 245.918 141.659 246.089 141.608 246.248C141.558 246.403 141.515 246.535 141.479 246.645L140.289 249.796H143.557ZM150.222 254.137C149.274 254.137 148.522 253.813 147.966 253.166C147.414 252.519 147.139 251.557 147.139 250.281C147.139 248.992 147.421 248.019 147.986 247.362C148.551 246.701 149.303 246.371 150.242 246.371C150.639 246.371 150.985 246.424 151.281 246.528C151.577 246.633 151.833 246.774 152.047 246.952C152.261 247.125 152.441 247.324 152.587 247.547H152.669C152.651 247.406 152.632 247.212 152.614 246.966C152.596 246.72 152.587 246.519 152.587 246.364V243.363H153.722V254H152.806L152.635 252.934H152.587C152.446 253.157 152.266 253.36 152.047 253.542C151.833 253.724 151.575 253.87 151.274 253.979C150.978 254.084 150.627 254.137 150.222 254.137ZM150.399 253.193C151.201 253.193 151.769 252.965 152.102 252.51C152.434 252.054 152.601 251.377 152.601 250.479V250.274C152.601 249.322 152.441 248.59 152.122 248.08C151.808 247.57 151.233 247.314 150.399 247.314C149.702 247.314 149.18 247.583 148.834 248.121C148.488 248.654 148.314 249.383 148.314 250.309C148.314 251.229 148.485 251.94 148.827 252.441C149.174 252.943 149.698 253.193 150.399 253.193ZM158.794 254.137C157.846 254.137 157.094 253.813 156.538 253.166C155.987 252.519 155.711 251.557 155.711 250.281C155.711 248.992 155.993 248.019 156.559 247.362C157.124 246.701 157.876 246.371 158.814 246.371C159.211 246.371 159.557 246.424 159.854 246.528C160.15 246.633 160.405 246.774 160.619 246.952C160.833 247.125 161.013 247.324 161.159 247.547H161.241C161.223 247.406 161.205 247.212 161.187 246.966C161.168 246.72 161.159 246.519 161.159 246.364V243.363H162.294V254H161.378L161.207 252.934H161.159C161.018 253.157 160.838 253.36 160.619 253.542C160.405 253.724 160.147 253.87 159.847 253.979C159.55 254.084 159.2 254.137 158.794 254.137ZM158.972 253.193C159.774 253.193 160.341 252.965 160.674 252.51C161.007 252.054 161.173 251.377 161.173 250.479V250.274C161.173 249.322 161.013 248.59 160.694 248.08C160.38 247.57 159.806 247.314 158.972 247.314C158.274 247.314 157.753 247.583 157.406 248.121C157.06 248.654 156.887 249.383 156.887 250.309C156.887 251.229 157.058 251.94 157.399 252.441C157.746 252.943 158.27 253.193 158.972 253.193ZM171.857 246.371C172.792 246.371 173.537 246.692 174.093 247.335C174.649 247.978 174.927 248.944 174.927 250.233C174.927 251.086 174.799 251.801 174.544 252.38C174.289 252.959 173.929 253.396 173.464 253.692C173.004 253.989 172.459 254.137 171.83 254.137C171.434 254.137 171.085 254.084 170.784 253.979C170.483 253.875 170.226 253.733 170.012 253.556C169.798 253.378 169.62 253.184 169.479 252.975H169.396C169.41 253.152 169.426 253.367 169.444 253.617C169.467 253.868 169.479 254.087 169.479 254.273V257.35H168.337V246.508H169.273L169.424 247.615H169.479C169.624 247.387 169.802 247.18 170.012 246.993C170.221 246.802 170.477 246.651 170.777 246.542C171.083 246.428 171.443 246.371 171.857 246.371ZM171.659 247.328C171.14 247.328 170.72 247.428 170.401 247.629C170.087 247.829 169.857 248.13 169.711 248.531C169.565 248.928 169.488 249.427 169.479 250.028V250.247C169.479 250.881 169.547 251.416 169.684 251.854C169.825 252.291 170.055 252.624 170.374 252.852C170.698 253.079 171.131 253.193 171.673 253.193C172.138 253.193 172.525 253.068 172.835 252.817C173.145 252.567 173.375 252.218 173.525 251.771C173.68 251.32 173.758 250.803 173.758 250.22C173.758 249.336 173.585 248.634 173.238 248.114C172.896 247.59 172.37 247.328 171.659 247.328ZM180.313 246.371C180.464 246.371 180.621 246.38 180.785 246.398C180.949 246.412 181.095 246.433 181.223 246.46L181.079 247.513C180.956 247.481 180.819 247.456 180.669 247.438C180.519 247.419 180.377 247.41 180.245 247.41C179.944 247.41 179.66 247.472 179.391 247.595C179.126 247.713 178.894 247.886 178.693 248.114C178.493 248.338 178.336 248.609 178.222 248.928C178.108 249.242 178.051 249.593 178.051 249.98V254H176.909V246.508H177.853L177.976 247.889H178.023C178.178 247.611 178.365 247.358 178.584 247.13C178.803 246.897 179.056 246.713 179.343 246.576C179.634 246.439 179.958 246.371 180.313 246.371ZM189.098 250.24C189.098 250.855 189.018 251.405 188.858 251.888C188.699 252.371 188.469 252.779 188.168 253.111C187.867 253.444 187.503 253.699 187.074 253.877C186.65 254.05 186.17 254.137 185.632 254.137C185.131 254.137 184.67 254.05 184.251 253.877C183.836 253.699 183.476 253.444 183.171 253.111C182.87 252.779 182.635 252.371 182.467 251.888C182.303 251.405 182.221 250.855 182.221 250.24C182.221 249.42 182.36 248.723 182.638 248.148C182.916 247.57 183.312 247.13 183.827 246.829C184.347 246.524 184.964 246.371 185.68 246.371C186.363 246.371 186.96 246.524 187.471 246.829C187.986 247.134 188.384 247.576 188.667 248.155C188.954 248.729 189.098 249.424 189.098 250.24ZM183.396 250.24C183.396 250.842 183.476 251.364 183.636 251.806C183.795 252.248 184.041 252.59 184.374 252.831C184.707 253.073 185.135 253.193 185.659 253.193C186.179 253.193 186.605 253.073 186.938 252.831C187.275 252.59 187.523 252.248 187.683 251.806C187.842 251.364 187.922 250.842 187.922 250.24C187.922 249.643 187.842 249.128 187.683 248.695C187.523 248.258 187.277 247.921 186.944 247.684C186.612 247.447 186.181 247.328 185.652 247.328C184.873 247.328 184.301 247.586 183.937 248.101C183.576 248.616 183.396 249.329 183.396 250.24ZM194.396 247.396H192.529V254H191.395V247.396H190.068V246.85L191.395 246.474V245.975C191.395 245.346 191.488 244.835 191.675 244.443C191.862 244.047 192.133 243.755 192.488 243.568C192.844 243.382 193.277 243.288 193.787 243.288C194.074 243.288 194.336 243.313 194.573 243.363C194.815 243.413 195.027 243.47 195.209 243.534L194.915 244.43C194.76 244.38 194.585 244.334 194.389 244.293C194.197 244.247 194.001 244.225 193.801 244.225C193.368 244.225 193.047 244.366 192.837 244.648C192.632 244.926 192.529 245.364 192.529 245.961V246.508H194.396V247.396ZM196.904 246.508V254H195.77V246.508H196.904ZM196.351 243.705C196.537 243.705 196.697 243.767 196.829 243.89C196.966 244.008 197.034 244.195 197.034 244.45C197.034 244.701 196.966 244.888 196.829 245.011C196.697 245.134 196.537 245.195 196.351 245.195C196.155 245.195 195.991 245.134 195.858 245.011C195.731 244.888 195.667 244.701 195.667 244.45C195.667 244.195 195.731 244.008 195.858 243.89C195.991 243.767 196.155 243.705 196.351 243.705ZM200.445 254H199.304V243.363H200.445V254ZM205.729 246.371C206.368 246.371 206.914 246.512 207.37 246.795C207.826 247.077 208.174 247.474 208.416 247.984C208.658 248.49 208.778 249.083 208.778 249.762V250.466H203.604C203.617 251.345 203.836 252.015 204.26 252.476C204.684 252.936 205.281 253.166 206.051 253.166C206.525 253.166 206.944 253.123 207.309 253.036C207.673 252.95 208.051 252.822 208.443 252.653V253.651C208.065 253.82 207.689 253.943 207.315 254.021C206.946 254.098 206.509 254.137 206.003 254.137C205.283 254.137 204.654 253.991 204.116 253.699C203.583 253.403 203.168 252.97 202.872 252.4C202.576 251.831 202.428 251.133 202.428 250.309C202.428 249.502 202.562 248.805 202.831 248.217C203.104 247.624 203.487 247.169 203.979 246.85C204.476 246.531 205.06 246.371 205.729 246.371ZM205.716 247.301C205.11 247.301 204.627 247.499 204.267 247.896C203.907 248.292 203.692 248.846 203.624 249.557H207.589C207.584 249.11 207.514 248.718 207.377 248.381C207.245 248.039 207.042 247.775 206.769 247.588C206.495 247.396 206.144 247.301 205.716 247.301ZM217.125 244.006C218.415 244.006 219.356 244.259 219.948 244.765C220.545 245.266 220.844 245.986 220.844 246.925C220.844 247.349 220.773 247.752 220.632 248.135C220.495 248.513 220.272 248.848 219.962 249.14C219.652 249.427 219.244 249.655 218.738 249.823C218.237 249.987 217.622 250.069 216.893 250.069H215.676V254H214.514V244.006H217.125ZM217.016 244.997H215.676V249.071H216.763C217.401 249.071 217.932 249.003 218.355 248.866C218.784 248.729 219.105 248.508 219.319 248.203C219.534 247.893 219.641 247.483 219.641 246.973C219.641 246.307 219.429 245.813 219.005 245.489C218.581 245.161 217.918 244.997 217.016 244.997ZM223.899 243.363V246.542C223.899 246.724 223.895 246.909 223.886 247.096C223.877 247.278 223.861 247.447 223.838 247.602H223.913C224.068 247.337 224.264 247.116 224.501 246.938C224.743 246.756 225.016 246.619 225.321 246.528C225.627 246.433 225.95 246.385 226.292 246.385C226.894 246.385 227.395 246.48 227.796 246.672C228.201 246.863 228.505 247.16 228.705 247.561C228.91 247.962 229.013 248.481 229.013 249.119V254H227.892V249.194C227.892 248.57 227.748 248.103 227.461 247.793C227.178 247.483 226.743 247.328 226.155 247.328C225.599 247.328 225.155 247.435 224.822 247.649C224.494 247.859 224.257 248.169 224.111 248.579C223.97 248.989 223.899 249.491 223.899 250.083V254H222.765V243.363H223.899ZM237.811 250.24C237.811 250.855 237.731 251.405 237.571 251.888C237.412 252.371 237.182 252.779 236.881 253.111C236.58 253.444 236.215 253.699 235.787 253.877C235.363 254.05 234.882 254.137 234.345 254.137C233.843 254.137 233.383 254.05 232.964 253.877C232.549 253.699 232.189 253.444 231.884 253.111C231.583 252.779 231.348 252.371 231.18 251.888C231.016 251.405 230.934 250.855 230.934 250.24C230.934 249.42 231.073 248.723 231.351 248.148C231.629 247.57 232.025 247.13 232.54 246.829C233.06 246.524 233.677 246.371 234.393 246.371C235.076 246.371 235.673 246.524 236.184 246.829C236.699 247.134 237.097 247.576 237.38 248.155C237.667 248.729 237.811 249.424 237.811 250.24ZM232.109 250.24C232.109 250.842 232.189 251.364 232.349 251.806C232.508 252.248 232.754 252.59 233.087 252.831C233.42 253.073 233.848 253.193 234.372 253.193C234.892 253.193 235.318 253.073 235.65 252.831C235.988 252.59 236.236 252.248 236.396 251.806C236.555 251.364 236.635 250.842 236.635 250.24C236.635 249.643 236.555 249.128 236.396 248.695C236.236 248.258 235.99 247.921 235.657 247.684C235.325 247.447 234.894 247.328 234.365 247.328C233.586 247.328 233.014 247.586 232.649 248.101C232.289 248.616 232.109 249.329 232.109 250.24ZM242.192 253.207C242.379 253.207 242.571 253.191 242.767 253.159C242.963 253.127 243.122 253.089 243.245 253.043V253.925C243.113 253.984 242.928 254.034 242.691 254.075C242.459 254.116 242.231 254.137 242.008 254.137C241.611 254.137 241.251 254.068 240.928 253.932C240.604 253.79 240.344 253.553 240.148 253.221C239.957 252.888 239.861 252.428 239.861 251.84V247.396H238.795V246.843L239.868 246.398L240.319 244.771H241.003V246.508H243.197V247.396H241.003V251.806C241.003 252.275 241.11 252.626 241.324 252.858C241.543 253.091 241.832 253.207 242.192 253.207ZM251.223 250.24C251.223 250.855 251.143 251.405 250.983 251.888C250.824 252.371 250.594 252.779 250.293 253.111C249.992 253.444 249.628 253.699 249.199 253.877C248.775 254.05 248.295 254.137 247.757 254.137C247.256 254.137 246.795 254.05 246.376 253.877C245.961 253.699 245.601 253.444 245.296 253.111C244.995 252.779 244.76 252.371 244.592 251.888C244.428 251.405 244.346 250.855 244.346 250.24C244.346 249.42 244.485 248.723 244.763 248.148C245.041 247.57 245.437 247.13 245.952 246.829C246.472 246.524 247.089 246.371 247.805 246.371C248.488 246.371 249.085 246.524 249.596 246.829C250.111 247.134 250.509 247.576 250.792 248.155C251.079 248.729 251.223 249.424 251.223 250.24ZM245.521 250.24C245.521 250.842 245.601 251.364 245.761 251.806C245.92 252.248 246.166 252.59 246.499 252.831C246.832 253.073 247.26 253.193 247.784 253.193C248.304 253.193 248.73 253.073 249.062 252.831C249.4 252.59 249.648 252.248 249.808 251.806C249.967 251.364 250.047 250.842 250.047 250.24C250.047 249.643 249.967 249.128 249.808 248.695C249.648 248.258 249.402 247.921 249.069 247.684C248.737 247.447 248.306 247.328 247.777 247.328C246.998 247.328 246.426 247.586 246.062 248.101C245.701 248.616 245.521 249.329 245.521 250.24Z" fill="#222423"/>
</svg>
