<svg width="25" height="25" viewBox="0 0 25 25" fill="none" xmlns="http://www.w3.org/2000/svg">
<path d="M6.64422 15.6382C5.21516 16.4891 1.46826 18.2266 3.75038 20.4008C4.86518 21.4628 6.10677 22.2224 7.66776 22.2224H16.5751C18.1361 22.2224 19.3777 21.4628 20.4924 20.4008C22.7745 18.2266 19.0277 16.4891 17.5986 15.6382C14.2475 13.6427 9.99535 13.6427 6.64422 15.6382Z" stroke="white" stroke-width="1.51515" stroke-linecap="round" stroke-linejoin="round"/>
<path d="M16.6666 6.56596C16.6666 9.07634 14.6315 11.1114 12.1211 11.1114C9.61075 11.1114 7.57568 9.07634 7.57568 6.56596C7.57568 4.05558 9.61075 2.02051 12.1211 2.02051C14.6315 2.02051 16.6666 4.05558 16.6666 6.56596Z" stroke="white" stroke-width="1.51515"/>
</svg>
